<?xml version="1.0" encoding="utf-8"?>
<!-- Generator: Adobe Illustrator 22.1.0, SVG Export Plug-In . SVG Version: 6.00 Build 0)  -->
<svg version="1.1" id="Слой_1" xmlns="http://www.w3.org/2000/svg" xmlns:xlink="http://www.w3.org/1999/xlink" x="0px" y="0px"
	 viewBox="0 0 20.1 25.6" style="enable-background:new 0 0 20.1 25.6;" xml:space="preserve">
<g>
	<path d="M4.5,2"/>
	<path d="M9.1,5"/>
	<path d="M2.8,9.4L2.6,9.2l10.5-1.1L13,8L2.4,9.1L2.2,9l10.6-1.2V7.7L2.1,8.9L1.9,8.7l10.8-1.2V7.4l-11,1.2L1.5,8.5l10.9-1.2V7.2
		l-11,1.2L1.1,8.2h0.4L12.7,7l-0.4-0.6L0,7.7V24l2.2,1.6l0,0l11.6-1.2V8.3L2.8,9.4z M11.8,15.3L5.1,16v-3.6l6.7-0.7
		C11.8,11.7,11.8,15.3,11.8,15.3z"/>
</g>
<g>
	<path d="M3.9,5.4L3.1,7.9c0,0,3.2,0.3,5.9,1.2c2.7,0.8,5.5,2.4,5.5,2.4l0.8-2.6c0,0-2.4-2.4-5.3-3.3C7.2,4.7,3.9,5.4,3.9,5.4
		L3.9,5.4z"/>
	<path d="M20.1,8.9l-0.9-1l0.1-0.3c0,0,0.8-1.5-1.3-1.2c-0.1,0-0.2,0.1-0.2,0.1L11.6,0L0,2.6l3.2,2.8l0.2-0.5c0,0,3.7-0.8,6.9,0.2
		s5.9,3.7,5.9,3.7l-0.3,1l2.4-0.5c-0.4,1.3-0.9,2.7-1,3.2l-0.7-0.2L16,13.8l1.1-0.3l0.8,0.9l0.5-1.6l-0.7-0.2l1.1-3.5L20.1,8.9z
		 M18.7,8.6c-0.1,0.3-0.4,0.4-0.6,0.3c-0.3-0.1-0.4-0.4-0.3-0.6C17.9,8,18.2,7.9,18.4,8C18.6,8,18.8,8.3,18.7,8.6L18.7,8.6z M18.2,7
		c0.3-0.1,0.7-0.2,0.6,0.2c0,0,0,0.1-0.1,0.3L18.2,7z"/>
</g>
</svg>
